<svg width="24" height="24" viewBox="0 0 24 24" fill="none" xmlns="http://www.w3.org/2000/svg">
<path fill-rule="evenodd" clip-rule="evenodd" d="M4.5 5C3.67157 5 3 5.66762 3 6.49117V18.5058C3 19.8343 4.76216 20.4996 5.70711 19.5603L8.06066 17.1456C8.15443 17.0524 8.28161 17 8.41421 17H19.5C20.3284 17 21 16.2618 21 15.4382V6.49117C21 5.66762 20.3284 5 19.5 5H4.5ZM4 6.49117C4 6.21666 4.22386 5.99412 4.5 5.99412H19.5C19.7761 5.99412 20 6.21666 20 6.49117V15.4382C20 15.7127 19.7761 16.0059 19.5 16.0059H8.41421C8.01639 16.0059 7.63486 16.163 7.35355 16.4426L5 18.8573C4.68502 19.1704 4 18.9487 4 18.5058V6.49117ZM9 10.9647C9 11.5137 8.55228 11.9588 8 11.9588C7.44772 11.9588 7 11.5137 7 10.9647C7 10.4157 7.44772 9.97058 8 9.97058C8.55228 9.97058 9 10.4157 9 10.9647ZM12 11.9588C12.5523 11.9588 13 11.5137 13 10.9647C13 10.4157 12.5523 9.97058 12 9.97058C11.4477 9.97058 11 10.4157 11 10.9647C11 11.5137 11.4477 11.9588 12 11.9588ZM17 10.9647C17 11.5137 16.5523 11.9588 16 11.9588C15.4477 11.9588 15 11.5137 15 10.9647C15 10.4157 15.4477 9.97058 16 9.97058C16.5523 9.97058 17 10.4157 17 10.9647Z" fill="#0A0A0A"/>
</svg>
