<svg width="24" height="24" viewBox="0 0 24 24" fill="none" xmlns="http://www.w3.org/2000/svg">
<path fill-rule="evenodd" clip-rule="evenodd" d="M15 8C15 9.65685 13.6569 11 12 11C10.3431 11 9 9.65685 9 8C9 6.34315 10.3431 5 12 5C13.6569 5 15 6.34315 15 8ZM16 8C16 10.2091 14.2091 12 12 12C9.79086 12 8 10.2091 8 8C8 5.79086 9.79086 4 12 4C14.2091 4 16 5.79086 16 8ZM17.9935 19.5002C17.7389 16.4203 15.1528 14 12 14C8.84722 14 6.26107 16.4203 6.00647 19.5002C5.98372 19.7754 5.76151 20 5.48472 20C5.20793 20 4.98168 19.7754 5.00117 19.4999C5.25818 15.8673 8.29345 13 12 13C15.7065 13 18.7418 15.8673 18.9988 19.4999C19.0183 19.7754 18.7921 20 18.5153 20C18.2385 20 18.0163 19.7754 17.9935 19.5002Z" fill="#0A0A0A"/>
</svg>
