<svg width="24" height="24" viewBox="0 0 24 24" fill="none" xmlns="http://www.w3.org/2000/svg">
<path fill-rule="evenodd" clip-rule="evenodd" d="M16.0592 7H4.12617C3.53904 7 3.06308 7.44772 3.06308 8V16C3.06308 16.5523 3.53904 17 4.12617 17H16.0592C16.3612 17 16.6489 16.8792 16.8506 16.6678L20.6652 12.6678C21.0275 12.2878 21.0275 11.7122 20.6652 11.3322L16.8506 7.33225C16.6489 7.1208 16.3612 7 16.0592 7ZM4.12617 6C2.95192 6 2 6.89543 2 8V16C2 17.1046 2.95192 18 4.12617 18H16.0592C16.6632 18 17.2386 17.7584 17.6419 17.3355L21.4565 13.3355C22.1812 12.5756 22.1812 11.4244 21.4565 10.6645L17.6419 6.66449C17.2386 6.2416 16.6632 6 16.0592 6H4.12617Z" fill="#0A0A0A"/>
<circle cx="16" cy="12" r="1.5" stroke="#0A0A0A"/>
</svg>
