<svg width="24" height="24" viewBox="0 0 24 24" fill="none" xmlns="http://www.w3.org/2000/svg">
<path fill-rule="evenodd" clip-rule="evenodd" d="M12 8C12 9.65685 10.6569 11 9 11C7.34315 11 6 9.65685 6 8C6 6.34315 7.34315 5 9 5C10.6569 5 12 6.34315 12 8ZM13 8C13 10.2091 11.2091 12 9 12C6.79086 12 5 10.2091 5 8C5 5.79086 6.79086 4 9 4C11.2091 4 13 5.79086 13 8ZM14.9935 19.5002C14.7389 16.4203 12.1528 14 9 14C5.84722 14 3.26107 16.4203 3.00647 19.5002C2.98372 19.7754 2.76151 20 2.48472 20C2.20793 20 1.98168 19.7754 2.00117 19.4999C2.25818 15.8673 5.29345 13 9 13C12.7065 13 15.7418 15.8673 15.9988 19.4999C16.0183 19.7754 15.7921 20 15.5153 20C15.2385 20 15.0163 19.7754 14.9935 19.5002ZM15.0516 4.88889C14.6312 4.88889 14.2305 4.96759 13.8635 5.11057C13.6293 5.20183 13.3506 5.13259 13.2243 4.92011C13.098 4.70764 13.1718 4.43323 13.4029 4.33472C13.908 4.11941 14.4659 4 15.0516 4C17.3223 4 19.1631 5.79086 19.1631 8C19.1631 10.2091 17.3223 12 15.0516 12C14.4659 12 13.908 11.8806 13.4029 11.6653C13.1718 11.5668 13.098 11.2924 13.2243 11.0799C13.3506 10.8674 13.6293 10.7982 13.8635 10.8894C14.2305 11.0324 14.6312 11.1111 15.0516 11.1111C16.8177 11.1111 18.2494 9.71822 18.2494 8C18.2494 6.28178 16.8177 4.88889 15.0516 4.88889ZM20.9941 19.5002C20.7396 16.4203 18.1548 14 15.0037 14C14.5425 14 14.0935 14.0518 13.6621 14.15C13.3339 14.2247 13 13.989 13 13.6529C13 13.4376 13.1414 13.246 13.3512 13.1955C13.8811 13.0677 14.4344 13 15.0037 13C18.7083 13 21.742 15.8673 21.9988 19.4999C22.0183 19.7754 21.7922 20 21.5155 20C21.2389 20 21.0168 19.7754 20.9941 19.5002Z" fill="#0A0A0A"/>
</svg>
