<svg width="24" height="24" viewBox="0 0 24 24" fill="none" xmlns="http://www.w3.org/2000/svg">
<path fill-rule="evenodd" clip-rule="evenodd" d="M15 18C15 18.5523 14.5523 19 14 19L6 19C5.44772 19 5 18.5523 5 18L5 6C5 5.44771 5.44772 5 6 5L14 5C14.5523 5 15 5.44772 15 6V7.5C15 7.77614 15.2239 8 15.5 8C15.7761 8 16 7.77614 16 7.5V6C16 4.89543 15.1046 4 14 4H6C4.89543 4 4 4.89543 4 6V18C4 19.1046 4.89543 20 6 20L14 20C15.1046 20 16 19.1046 16 18V16.5C16 16.2239 15.7761 16 15.5 16C15.2239 16 15 16.2239 15 16.5V18ZM17.1464 8.64645C17.3417 8.45119 17.6583 8.45119 17.8536 8.64645L20.7828 11.5757C21.0172 11.8101 21.0172 12.19 20.7828 12.4243L17.8536 15.3536C17.6583 15.5488 17.3417 15.5488 17.1464 15.3536C16.9512 15.1583 16.9512 14.8417 17.1464 14.6464L19.2929 12.5L10.5 12.5C10.2239 12.5 10 12.2761 10 12C10 11.7239 10.2239 11.5 10.5 11.5L19.2929 11.5L17.1464 9.35355C16.9512 9.15829 16.9512 8.84171 17.1464 8.64645Z" fill="#0A0A0A"/>
</svg>
