<svg width="24" height="24" viewBox="0 0 24 24" fill="none" xmlns="http://www.w3.org/2000/svg">
<path fill-rule="evenodd" clip-rule="evenodd" d="M4.33051 14.4864C4.11889 14.698 4 14.985 4 15.2843V17.8717C4 18.4949 4.50521 19.0001 5.12842 19.0001H7.71577C8.01505 19.0001 8.30207 18.8812 8.51369 18.6696L18.6695 8.51378C19.1102 8.0731 19.1102 7.35862 18.6695 6.91794L16.0821 4.33059C15.6415 3.88992 14.927 3.88992 14.4863 4.33059L4.33051 14.4864ZM12.6967 7.71599L15.2842 5.12851L17.8716 7.71586L15.2841 10.3033L12.6967 7.71599ZM11.8988 8.5139L5.12842 15.2843L5.12842 17.8717H7.71577L14.4862 11.1013L11.8988 8.5139Z" fill="#0A0A0A"/>
<path d="M4.5 18.5H20.5" stroke="#0A0A0A" stroke-linecap="round"/>
</svg>
