<svg width="24" height="24" viewBox="0 0 24 24" fill="none" xmlns="http://www.w3.org/2000/svg">
<path d="M6 5C5.44772 5 5 5.44772 5 6V18C5 18.5523 5.44772 19 6 19H18C18.5523 19 19 18.5523 19 18V13.5C19 13.2239 19.2239 13 19.5 13C19.7761 13 20 13.2239 20 13.5V18C20 19.1046 19.1046 20 18 20H6C4.89543 20 4 19.1046 4 18V6C4 4.89543 4.89543 4 6 4H10.5C10.7761 4 11 4.22386 11 4.5C11 4.77614 10.7761 5 10.5 5H6Z" fill="#0A0A0A"/>
<path d="M9.5 11.7071C9.5 11.5745 9.55268 11.4473 9.64645 11.3536L18.6464 2.35355C18.8417 2.15829 19.1583 2.15829 19.3536 2.35355L21.6464 4.64645C21.8417 4.84171 21.8417 5.15829 21.6464 5.35355L12.6464 14.3536C12.5527 14.4473 12.4255 14.5 12.2929 14.5L10 14.5C9.72386 14.5 9.5 14.2761 9.5 14L9.5 11.7071Z" stroke="#0A0A0A"/>
<path d="M16 5L19 8" stroke="#0A0A0A"/>
</svg>
